<svg width="38" height="39" viewBox="0 0 38 39" fill="none" xmlns="http://www.w3.org/2000/svg">
<path fill-rule="evenodd" clip-rule="evenodd" d="M37.9995 35.3202C37.9538 38.3709 31.9854 39.1421 27.0776 38.9796C22.1698 38.8171 20.0942 36.9208 20.1514 34.7118C20.2086 32.5028 22.2782 30.7695 27.2491 30.9266C32.1569 31.0891 38.0624 31.7494 37.9995 35.3202ZM17.6598 15.8063C21.2888 12.3186 25.904 8.48704 28.2262 11.0105C30.1986 13.175 26.5639 18.0246 22.9979 21.5068C19.3689 24.9945 16.7143 25.1574 15.2408 23.5983C13.7041 22.0447 14.0307 19.294 17.6598 15.8063ZM4.24227 0.000964607C7.17205 0.0737978 8.02669 6.09405 7.9066 11.1607C7.78077 16.163 5.93474 18.2661 3.76751 18.1927C1.60027 18.1193 -0.114147 15.9975 0.00594553 10.9308C0.131775 5.92848 0.739153 -0.0875172 4.24227 0.000964607Z" fill="#01AAE4"/>
</svg>
