<svg width="38" height="39" viewBox="0 0 38 39" fill="none" xmlns="http://www.w3.org/2000/svg">
<path fill-rule="evenodd" clip-rule="evenodd" d="M37.9994 35.3202C37.9537 38.3709 31.9853 39.1421 27.0775 38.9796C22.1697 38.8171 20.094 36.9208 20.1512 34.7118C20.2084 32.5028 22.2781 30.7695 27.249 30.9266C32.1568 31.0891 38.0622 31.7494 37.9994 35.3202ZM17.6597 15.8063C21.2887 12.3186 25.9039 8.48704 28.226 11.0105C30.1985 13.175 26.5638 18.0246 22.9978 21.5068C19.3688 24.9945 16.7142 25.1574 15.2406 23.5983C13.704 22.0447 14.0306 19.294 17.6597 15.8063ZM4.24215 0.000964607C7.17193 0.0737978 8.02657 6.09405 7.90648 11.1607C7.78065 16.163 5.93462 18.2661 3.76738 18.1927C1.60015 18.1193 -0.114269 15.9975 0.00582346 10.9308C0.131653 5.92848 0.739031 -0.0875172 4.24215 0.000964607Z" fill="white"/>
</svg>
